<svg width="42" height="42" viewBox="0 0 42 42" fill="none" xmlns="http://www.w3.org/2000/svg">
<g filter="url(#filter0_d_0_14)">
<rect x="2" y="1" width="38" height="38" rx="4" fill="white"/>
<rect x="2.5" y="1.5" width="37" height="37" rx="3.5" stroke="#E2E8F0"/>
</g>
<path d="M22 27H20C19.448 27 19 26.552 19 26V26C19 25.448 19.448 25 20 25H22C22.552 25 23 25.448 23 26V26C23 26.552 22.552 27 22 27Z" fill="#64748B"/>
<path d="M24 23H18C17.448 23 17 22.552 17 22V22C17 21.448 17.448 21 18 21H24C24.552 21 25 21.448 25 22V22C25 22.552 24.552 23 24 23Z" fill="#64748B"/>
<path d="M26 19H16C15.448 19 15 18.552 15 18V18C15 17.448 15.448 17 16 17H26C26.552 17 27 17.448 27 18V18C27 18.552 26.552 19 26 19Z" fill="#64748B"/>
<path d="M28 15H14C13.448 15 13 14.552 13 14V14C13 13.448 13.448 13 14 13H28C28.552 13 29 13.448 29 14V14C29 14.552 28.552 15 28 15Z" fill="#64748B"/>
<defs>
<filter id="filter0_d_0_14" x="0" y="0" width="42" height="42" filterUnits="userSpaceOnUse" color-interpolation-filters="sRGB">
<feFlood flood-opacity="0" result="BackgroundImageFix"/>
<feColorMatrix in="SourceAlpha" type="matrix" values="0 0 0 0 0 0 0 0 0 0 0 0 0 0 0 0 0 0 127 0" result="hardAlpha"/>
<feOffset dy="1"/>
<feGaussianBlur stdDeviation="1"/>
<feColorMatrix type="matrix" values="0 0 0 0 0.0588235 0 0 0 0 0.0901961 0 0 0 0 0.164706 0 0 0 0.04 0"/>
<feBlend mode="normal" in2="BackgroundImageFix" result="effect1_dropShadow_0_14"/>
<feBlend mode="normal" in="SourceGraphic" in2="effect1_dropShadow_0_14" result="shape"/>
</filter>
</defs>
</svg>
