<svg width="523" height="151" viewBox="0 0 523 151" fill="none" xmlns="http://www.w3.org/2000/svg">
<path d="M2 67L19 117L35 134L52 25L70 131L84 88L102 134L121 100L137 150H154L170 134L201 120L234 38L267 100L285 134L300 100L319 117H334L352 53L387 85L401 116L417 68L434 116L451 100L467 131H487L508 120L522 131" stroke="#CBD5E1" stroke-width="2"/>
<path fill-rule="evenodd" clip-rule="evenodd" d="M1 27L18 3L35 67L51 81L67 84L82 59L100 71L116 97L133 81L149 105L181 62L197 92L217 67L231 101L250 87L262 92L299 81L313 92L329 31L348 67L368 92L377 97L394 48L411 92L427 67L445 83L458 81L480 112L493 101L503 107L520 89L522 92V150H1V27Z" fill="#3B82F6" fill-opacity="0.08"/>
<path d="M1 27L18 3L35 67L51 81L67 84L82 59L100 71L116 97L133 81L149 105L181 62L197 92L217 67L231 101L250 87L262 92L299 81L313 92L329 31L348 67L368 92L377 97L394 48L411 92L427 67L445 83L458 81L480 112L493 101L503 107L520 89L522 92" stroke="#6366F1" stroke-width="2"/>
</svg>
