<svg width="120" height="32" viewBox="0 0 120 32" fill="none" xmlns="http://www.w3.org/2000/svg">
<rect x="88" width="32" height="32" rx="16" fill="#F1F5F9"/>
<path fill-rule="evenodd" clip-rule="evenodd" d="M104 8C99.6 8 96 11.6 96 16C96 20.4 99.6 24 104 24C108.4 24 112 20.4 112 16C112 11.6 108.4 8 104 8ZM104 20C103.4 20 103 19.6 103 19C103 18.4 103.4 18 104 18C104.6 18 105 18.4 105 19C105 19.6 104.6 20 104 20ZM103 17H105V12H103V17Z" fill="#64748B"/>
<rect x="44" width="32" height="32" rx="16" fill="#F1F5F9"/>
<circle cx="71" cy="5" r="4" fill="#F43F5E" stroke="white" stroke-width="2"/>
<path d="M68 17.5C68 16.513 67.571 15.603 66.853 14.861C66.124 18.348 62.66 21 58.5 21C58.397 21 58.298 20.982 58.195 20.979C59.231 21.617 60.556 22 62 22C62.449 22 62.886 21.96 63.307 21.89L67 24V20H66.988C67.627 19.285 68 18.425 68 17.5Z" fill="#94A3B8"/>
<path d="M58.5 8C54.91 8 52 10.462 52 13.5C52 14.575 52.37 15.574 53 16.422V20L55.699 18.458C56.548 18.802 57.496 19 58.5 19C62.09 19 65 16.538 65 13.5C65 10.462 62.09 8 58.5 8Z" fill="#64748B"/>
<rect width="32" height="32" rx="16" fill="#F1F5F9"/>
<path fill-rule="evenodd" clip-rule="evenodd" d="M8 15C8 18.86 11.14 22 15 22C18.86 22 22 18.86 22 15C22 11.14 18.86 8 15 8C11.14 8 8 11.14 8 15ZM10 15C10 12.243 12.243 10 15 10C17.757 10 20 12.243 20 15C20 17.757 17.757 20 15 20C12.243 20 10 17.757 10 15Z" fill="#64748B"/>
<path d="M23.707 22.293L21.314 19.9C20.903 20.429 20.429 20.903 19.9 21.314L22.293 23.707C22.488 23.902 22.744 24 23 24C23.256 24 23.512 23.902 23.707 23.707C24.098 23.316 24.098 22.684 23.707 22.293Z" fill="#94A3B8"/>
</svg>
