<svg width="11" height="11" viewBox="0 0 11 11" fill="none" xmlns="http://www.w3.org/2000/svg">
<path d="M9.71931 0.292786C9.32881 -0.0975955 8.69581 -0.0975955 8.30531 0.292786L5.01231 3.58579L1.71931 0.292786C1.32693 -0.0861858 0.703228 -0.0807659 0.317494 0.304968C-0.0682394 0.690702 -0.0736592 1.31441 0.305313 1.70679L3.59831 4.99979L0.305313 8.29279C0.0453564 8.54386 -0.0588996 8.91566 0.0326158 9.26529C0.124131 9.61492 0.397176 9.88797 0.746806 9.97948C1.09644 10.071 1.46824 9.96674 1.71931 9.70679L5.01231 6.41379L8.30531 9.70679C8.69769 10.0858 9.3214 10.0803 9.70713 9.6946C10.0929 9.30887 10.0983 8.68517 9.71931 8.29279L6.42631 4.99979L9.71931 1.70679C10.1097 1.31629 10.1097 0.683286 9.71931 0.292786Z" fill="#64748B"/>
</svg>
